<svg width="1600" height="960" viewBox="0 0 1600 960" fill="none" xmlns="http://www.w3.org/2000/svg">
  <rect width="1600" height="960" fill="#0B1627"/>
  <rect width="1600" height="960" fill="url(#paint0_linear)"/>
  <circle cx="333" cy="249" r="247" fill="url(#paint1_radial)" fill-opacity="0.85"/>
  <circle cx="1229" cy="184" r="173" fill="url(#paint2_radial)" fill-opacity="0.42"/>
  <circle cx="1140" cy="623" r="287" fill="url(#paint3_radial)" fill-opacity="0.38"/>
  <path d="M0 648C146 598.667 297.667 574 455 574C684.333 574 872.333 660 1019 660C1144.33 660 1338 606 1600 498V960H0V648Z" fill="url(#paint4_linear)" fill-opacity="0.72"/>
  <path d="M1000 0H1600V378C1472.67 468 1291.67 513 1057 513C979 513 881.667 502 765 480L1000 0Z" fill="url(#paint5_linear)" fill-opacity="0.55"/>
  <defs>
    <linearGradient id="paint0_linear" x1="186" y1="84" x2="1319" y2="960" gradientUnits="userSpaceOnUse">
      <stop stop-color="#0B1627"/>
      <stop offset="0.36" stop-color="#17304F"/>
      <stop offset="0.67" stop-color="#5E5447"/>
      <stop offset="1" stop-color="#F7F5EF"/>
    </linearGradient>
    <radialGradient id="paint1_radial" cx="0" cy="0" r="1" gradientUnits="userSpaceOnUse" gradientTransform="translate(333 249) rotate(90) scale(247)">
      <stop stop-color="#AF7840"/>
      <stop offset="1" stop-color="#AF7840" stop-opacity="0"/>
    </radialGradient>
    <radialGradient id="paint2_radial" cx="0" cy="0" r="1" gradientUnits="userSpaceOnUse" gradientTransform="translate(1229 184) rotate(90) scale(173)">
      <stop stop-color="#E7D4B5"/>
      <stop offset="1" stop-color="#E7D4B5" stop-opacity="0"/>
    </radialGradient>
    <radialGradient id="paint3_radial" cx="0" cy="0" r="1" gradientUnits="userSpaceOnUse" gradientTransform="translate(1140 623) rotate(90) scale(287)">
      <stop stop-color="#F6EEE1"/>
      <stop offset="1" stop-color="#F6EEE1" stop-opacity="0"/>
    </radialGradient>
    <linearGradient id="paint4_linear" x1="776" y1="574" x2="776" y2="960" gradientUnits="userSpaceOnUse">
      <stop stop-color="#3B3127" stop-opacity="0"/>
      <stop offset="1" stop-color="#F7F5EF"/>
    </linearGradient>
    <linearGradient id="paint5_linear" x1="1182.5" y1="0" x2="1182.5" y2="513" gradientUnits="userSpaceOnUse">
      <stop stop-color="#F4E7D1"/>
      <stop offset="1" stop-color="#F4E7D1" stop-opacity="0"/>
    </linearGradient>
  </defs>
</svg>
